<?xml version="1.0" standalone="no"?>
<!DOCTYPE svg PUBLIC "-//W3C//DTD SVG 20010904//EN"
 "http://www.w3.org/TR/2001/REC-SVG-20010904/DTD/svg10.dtd">
<svg version="1.0" xmlns="http://www.w3.org/2000/svg"
 width="155.000000pt" height="170.000000pt" viewBox="0 0 155.000000 170.000000"
 preserveAspectRatio="xMidYMid meet">

<g transform="translate(0.000000,170.000000) scale(0.100000,-0.100000)"
fill="#000000" stroke="none">
<path d="M430 1661 c0 -5 -20 -19 -45 -31 -38 -18 -45 -26 -45 -51 0 -18 -6
-32 -17 -36 -32 -13 -55 -44 -50 -70 3 -16 -2 -32 -14 -44 -14 -14 -19 -33
-19 -74 l0 -55 -48 0 c-50 0 -72 -12 -72 -41 0 -9 -7 -19 -15 -23 -22 -8 -19
-69 4 -90 16 -15 61 -17 452 -18 239 -1 554 0 702 0 l267 2 0 66 c0 56 -3 69
-22 85 -13 10 -39 18 -59 19 -57 0 -81 33 -78 109 2 44 -2 66 -13 78 -9 10
-18 26 -19 35 -2 9 -32 46 -67 82 l-64 66 -389 0 c-227 0 -389 -4 -389 -9z
m300 -171 c13 -8 13 -13 2 -31 -10 -15 -11 -24 -3 -32 6 -6 11 -21 11 -34 0
-18 6 -23 25 -23 14 0 28 -7 31 -15 8 -19 38 -19 54 -1 6 8 21 16 33 18 19 3
22 10 25 58 2 30 9 58 15 62 7 4 53 8 102 8 l90 -1 43 -40 c42 -40 43 -42 40
-97 l-3 -57 -372 -3 -373 -2 0 64 c0 48 4 65 15 70 8 3 15 16 15 30 0 13 6 27
13 29 22 10 222 7 237 -3z"/>
</g>
</svg>
