<svg xmlns="http://www.w3.org/2000/svg" width="155" height="170" viewBox="0 0 155 170" version="1.1"><path d="M 41 3 C 41 3.550, 40.360 4, 39.577 4 C 37.325 4, 32 8.982, 32 11.089 C 32 13.101, 28.702 17, 27 17 C 26.450 17, 26 19.025, 26 21.500 C 26 24.833, 25.611 26, 24.500 26 C 22.868 26, 22.614 27.276, 22.956 33.750 L 23.180 38 18.672 38 C 12.638 38, 11 38.763, 11 41.572 C 11 42.906, 10.132 44.394, 9 45 C 5.902 46.658, 6.229 53.556, 9.552 56.635 L 12.103 59 83.052 59 L 154 59 153.983 50.750 C 153.967 43.378, 153.713 42.261, 151.592 40.250 C 150.072 38.809, 147.976 38, 145.764 38 C 140.554 38, 139 35.620, 139 27.640 C 139 22.604, 138.627 20.794, 137.500 20.362 C 136.645 20.034, 136 18.542, 136 16.893 C 136 15.302, 135.536 14, 134.969 14 C 134.402 14, 131.336 11.300, 128.157 8 L 122.376 2 81.688 2 C 55.229 2, 41 2.350, 41 3 M 49.500 23 C 49.160 23.550, 49.153 24.438, 49.484 24.973 C 49.814 25.509, 49.166 26.734, 48.043 27.696 C 46.588 28.941, 46 30.653, 46 33.641 L 46 37.838 64 38.169 C 73.900 38.351, 90.100 38.351, 100 38.169 L 118 37.838 118 33.369 C 118 29.653, 117.436 28.320, 114.649 25.450 C 111.310 22.012, 111.266 22, 102.149 22 L 93 22 93 27.300 C 93 33.086, 91.832 35, 88.300 35 C 87.035 35, 86 35.450, 86 36 C 86 36.550, 84.425 37, 82.500 37 C 80.575 37, 79 36.550, 79 36 C 79 35.450, 78.137 35, 77.082 35 C 73.442 35, 72 33.835, 72 30.893 C 72 28.988, 71.488 28, 70.500 28 C 68.446 28, 68.608 25.018, 70.750 23.392 C 72.239 22.262, 70.830 22.059, 61.309 22.032 C 54.891 22.014, 49.854 22.426, 49.500 23 M 26.250 62.584 C 24.462 63.366, 22.967 64.567, 22.927 65.253 C 22.886 65.939, 22.916 72.688, 22.994 80.250 C 23.115 92.127, 22.920 94, 21.567 94 C 20.705 94, 19.931 94.563, 19.848 95.250 C 19.764 95.938, 19.644 96.989, 19.582 97.587 C 19.519 98.186, 18.641 99.501, 17.631 100.511 C 16.297 101.846, 15.942 103.257, 16.335 105.674 C 16.814 108.628, 16.619 109, 14.592 109 C 13.337 109, 11.495 109.900, 10.500 111 C 9.505 112.100, 7.930 113, 7 113 C 6.070 113, 4.495 113.900, 3.500 115 C 2.505 116.100, 2.155 117, 2.723 117 C 3.290 117, 4.315 116.325, 5 115.500 C 5.685 114.675, 7.035 114, 8 114 C 8.965 114, 10.315 113.325, 11 112.500 C 11.685 111.675, 13.035 111, 14 111 C 16.522 111, 18.281 108.460, 17.488 105.963 C 17.017 104.478, 17.479 103.119, 19.010 101.489 C 20.220 100.201, 20.918 98.677, 20.562 98.101 C 20.206 97.525, 20.834 96.266, 21.957 95.304 C 23.837 93.695, 24 92.417, 24 79.253 L 24 64.950 26.565 63.975 C 29.953 62.687, 40.619 62.726, 43.066 64.035 C 44.894 65.014, 45.001 66.372, 45.017 88.785 L 45.035 112.500 47.488 114.827 C 50.277 117.472, 53.089 116.861, 50.631 114.144 C 49.340 112.718, 48.481 102.115, 48.934 93.200 C 48.982 92.255, 50.570 91.982, 54.750 92.200 L 60.500 92.500 61 103 C 61.469 112.842, 61.636 113.519, 63.677 113.810 C 64.875 113.981, 66.393 114.768, 67.050 115.560 C 68.790 117.657, 90.537 117.649, 91.342 115.551 C 91.718 114.571, 93.771 114.006, 97.699 113.801 L 103.500 113.500 104 103 L 104.500 92.500 110 92.500 L 115.500 92.500 115.800 96.586 C 116.002 99.349, 115.597 101.090, 114.550 101.959 C 113.452 102.870, 112.979 105.176, 112.927 109.872 C 112.845 117.326, 110.658 122.307, 107.247 122.810 C 106.091 122.981, 104.607 123.768, 103.950 124.560 C 102.148 126.732, 62.806 126.677, 61 124.500 C 59.656 122.880, 55 122.419, 55 123.906 C 55 124.405, 55.819 124.599, 56.820 124.337 C 57.821 124.075, 59.226 124.567, 59.942 125.430 C 61.851 127.731, 103.757 127.796, 104.638 125.500 C 104.966 124.645, 106.458 124, 108.107 124 C 109.698 124, 111 123.473, 111 122.829 C 111 122.185, 111.788 120.787, 112.750 119.724 C 114.072 118.263, 114.516 115.964, 114.566 110.318 C 114.609 105.498, 115.074 102.572, 115.877 102.076 C 116.673 101.584, 117.010 99.536, 116.811 96.403 L 116.500 91.500 110 91.500 L 103.500 91.500 103 102 L 102.500 112.500 97.006 112.811 C 93.531 113.007, 91.216 113.650, 90.706 114.561 C 89.519 116.682, 69.767 116.629, 68 114.500 C 67.315 113.675, 65.700 113, 64.411 113 C 62.116 113, 62.062 112.778, 61.784 102.250 L 61.500 91.500 54.750 91.204 C 48.832 90.945, 47.992 91.130, 47.934 92.704 C 47.898 93.692, 47.925 98.438, 47.994 103.250 C 48.082 109.340, 47.764 112, 46.949 112 C 46.069 112, 45.959 106.712, 46.506 90.668 C 46.906 78.936, 46.938 67.995, 46.578 66.355 C 46.098 64.168, 45.049 63.058, 42.641 62.187 C 38.304 60.619, 30.301 60.813, 26.250 62.584 M 121.282 62.970 L 118.064 64.932 118.168 94.296 C 118.264 121.554, 118.139 123.815, 116.414 125.830 C 114.586 127.964, 114.078 128, 85.478 128 C 63.554 128, 56.090 127.692, 55.141 126.750 C 54.131 125.748, 54.014 125.847, 54.548 127.250 C 55.162 128.863, 57.558 129, 85.107 129 C 114.342 129, 115.047 128.953, 117.145 126.855 C 119.246 124.754, 119.289 124.099, 119.200 95.352 L 119.109 65.995 122.095 64.451 C 124.092 63.418, 127.139 63.005, 131.291 63.203 L 137.500 63.500 137.763 98.953 C 137.991 129.747, 137.827 134.517, 136.513 135.253 C 135.681 135.718, 135 136.954, 135 137.998 C 135 140.645, 130.711 145, 128.104 145 C 126.912 145, 125.678 145.675, 125.362 146.500 C 125.045 147.325, 123.764 148, 122.515 148 C 121.267 148, 119.685 148.675, 119 149.500 C 117.942 150.775, 113.049 151, 86.378 151 C 61.994 151, 54.978 151.279, 54.903 152.250 C 54.850 152.938, 54.888 155.242, 54.988 157.371 C 55.141 160.625, 54.567 161.859, 51.382 165.121 L 47.594 169 26.404 169 C 8.491 169, 5.125 168.768, 4.638 167.500 C 4.322 166.675, 3.603 166, 3.041 166 C 2.479 166, 2.790 166.900, 3.732 168 C 5.345 169.884, 6.682 170, 26.801 170 L 48.157 170 52.152 165.965 C 55.820 162.259, 56.123 161.545, 55.856 157.215 L 55.566 152.500 87.172 152.236 C 113.688 152.015, 118.977 151.733, 120.012 150.486 C 120.690 149.669, 122.267 149, 123.515 149 C 124.764 149, 126.045 148.325, 126.362 147.500 C 126.678 146.675, 127.645 146, 128.509 146 C 131.289 146, 136 141.774, 136 139.281 C 136 137.992, 136.675 136.678, 137.500 136.362 C 138.796 135.864, 139 130.776, 139 99 C 139 57.385, 139.840 60.997, 130.168 61.004 C 126.302 61.006, 123.477 61.631, 121.282 62.970 M 63.436 64.307 C 63.137 65.086, 63.029 68.374, 63.196 71.612 L 63.500 77.500 68.500 77.500 L 73.500 77.500 73.500 70.500 L 73.500 63.500 68.740 63.195 C 65.339 62.977, 63.824 63.294, 63.436 64.307 M 89.750 65.861 C 85.967 69.720, 86.292 72.048, 91.210 76.332 C 95.255 79.855, 98 80.981, 98 79.117 C 98 78.631, 98.900 77.998, 100 77.710 C 101.644 77.280, 102 76.346, 102 72.458 C 102 68.673, 101.491 67.257, 99.448 65.365 C 96.102 62.263, 93.128 62.415, 89.750 65.861 M 64.432 65.316 C 64.129 66.107, 64.020 68.947, 64.190 71.627 L 64.500 76.500 68.500 76.500 L 72.500 76.500 72.500 70.500 L 72.500 64.500 68.742 64.189 C 66.174 63.977, 64.809 64.334, 64.432 65.316 M 90.589 67.077 C 89.165 68.769, 88 70.522, 88 70.973 C 88 71.756, 94.637 78, 95.470 78 C 95.690 78, 97.024 77.561, 98.435 77.025 C 100.568 76.214, 100.997 75.414, 100.983 72.275 C 100.971 69.616, 100.264 67.835, 98.592 66.250 C 95.410 63.234, 93.671 63.414, 90.589 67.077 M 30.709 101.624 C 29.626 102.708, 29.865 109.799, 31.009 110.506 C 31.564 110.848, 32.938 110.837, 34.062 110.480 C 35.763 109.941, 36.056 109.130, 35.803 105.666 C 35.562 102.357, 35.080 101.440, 33.459 101.208 C 32.336 101.047, 31.099 101.235, 30.709 101.624 M 31 106 C 31 108.333, 31.444 109, 33 109 C 34.556 109, 35 108.333, 35 106 C 35 103.667, 34.556 103, 33 103 C 31.444 103, 31 103.667, 31 106 M 17.362 121.500 C 17.045 122.325, 15.788 123, 14.567 123 C 13.347 123, 11.355 124.057, 10.141 125.350 C 8.155 127.464, 8.092 127.831, 9.510 129.008 C 10.835 130.108, 11.055 132.734, 10.890 145.506 C 10.782 153.860, 11.014 161.214, 11.406 161.848 C 11.892 162.634, 16.862 163, 27.059 163 C 39.673 163, 42 162.766, 42 161.500 C 42 160.315, 40.582 160, 35.240 160 C 29.343 160, 28.121 159.667, 25.672 157.397 C 24.031 155.875, 23.101 154.180, 23.433 153.315 C 23.745 152.502, 24 151.648, 24 151.418 C 24 151.188, 28.725 151, 34.500 151 C 43.055 151, 45 150.729, 45 149.535 C 45 148.362, 42.956 148.013, 34.750 147.785 L 24.500 147.500 24.194 143.286 L 23.888 139.071 34.183 138.786 C 43.057 138.539, 44.523 138.259, 44.812 136.750 C 45.114 135.172, 44.101 135, 34.516 135 L 23.885 135 24.193 130.750 L 24.500 126.500 33.250 126.211 C 40.126 125.984, 42 125.609, 42 124.461 C 42 123.589, 41.041 123, 39.622 123 C 38.315 123, 36.685 122.325, 36 121.500 C 35.315 120.675, 33.290 120, 31.500 120 C 29.710 120, 27.685 120.675, 27 121.500 C 26.315 122.325, 24.733 123, 23.485 123 C 22.236 123, 20.955 122.325, 20.638 121.500 C 20.322 120.675, 19.585 120, 19 120 C 18.415 120, 17.678 120.675, 17.362 121.500 M 18 122.500 C 18 123.355, 17.101 124, 15.908 124 C 14.757 124, 12.713 124.867, 11.366 125.927 C 9.210 127.623, 9.112 127.963, 10.548 128.767 C 11.939 129.545, 12.203 132.026, 12.340 145.590 L 12.500 161.500 27 161.584 C 36.523 161.640, 39.097 161.468, 34.500 161.084 C 25.212 160.309, 20.915 156.993, 22.545 151.859 C 23.066 150.218, 24.388 149.975, 33.817 149.791 L 44.500 149.581 34.511 149.252 C 29.017 149.070, 24.121 148.521, 23.631 148.031 C 22.508 146.908, 21.906 142.056, 22.605 139.750 C 23.065 138.229, 24.500 138, 33.567 138 C 39.856 138, 44 137.603, 44 137 C 44 136.397, 39.856 136, 33.567 136 C 22.216 136, 21.693 135.715, 22.383 129.904 C 22.920 125.379, 23.691 125.007, 32.809 124.864 C 37.589 124.789, 40.520 124.537, 39.323 124.304 C 38.125 124.071, 36.607 123.232, 35.950 122.440 C 34.383 120.551, 28.585 120.590, 27 122.500 C 26.315 123.325, 24.671 124, 23.346 124 C 22.021 124, 20.678 123.325, 20.362 122.500 C 20.045 121.675, 19.384 121, 18.893 121 C 18.402 121, 18 121.675, 18 122.500 M 52.333 121.667 C 52.700 122.033, 53.300 122.033, 53.667 121.667 C 54.033 121.300, 53.733 121, 53 121 C 52.267 121, 51.967 121.300, 52.333 121.667" stroke="none" fill="#1f3d82" fill-rule="evenodd"/><path d="M 26.250 64.031 C 24.064 64.910, 24 65.340, 24 79.246 C 24 92.417, 23.838 93.695, 21.957 95.304 C 20.834 96.266, 20.206 97.525, 20.562 98.101 C 20.918 98.677, 20.220 100.201, 19.010 101.489 C 17.479 103.119, 17.017 104.478, 17.488 105.963 C 18.281 108.460, 16.522 111, 14 111 C 13.035 111, 11.685 111.675, 11 112.500 C 10.315 113.325, 9.023 114.015, 8.128 114.033 C 7.232 114.052, 5.488 114.911, 4.250 115.944 C 2.033 117.793, 2 118.170, 2 141.410 C 2 163.667, 2.113 165.113, 4 167 C 5.872 168.872, 7.333 169, 26.797 169 L 47.594 169 51.382 165.121 C 54.567 161.859, 55.141 160.625, 54.988 157.371 C 54.888 155.242, 54.850 152.938, 54.903 152.250 C 54.978 151.279, 61.994 151, 86.378 151 C 113.049 151, 117.942 150.775, 119 149.500 C 119.685 148.675, 121.267 148, 122.515 148 C 123.764 148, 125.045 147.325, 125.362 146.500 C 125.678 145.675, 126.912 145, 128.104 145 C 130.711 145, 135 140.645, 135 137.998 C 135 136.954, 135.681 135.718, 136.513 135.253 C 137.827 134.517, 137.991 129.747, 137.763 98.953 L 137.500 63.500 131.291 63.203 C 127.139 63.005, 124.092 63.418, 122.095 64.451 L 119.109 65.995 119.200 95.352 C 119.289 124.099, 119.246 124.754, 117.145 126.855 C 115.047 128.953, 114.342 129, 85.083 129 C 53.843 129, 53.683 128.977, 54.779 124.750 C 55.340 122.590, 59.283 122.431, 61 124.500 C 62.806 126.677, 102.148 126.732, 103.950 124.560 C 104.607 123.768, 106.091 122.981, 107.247 122.810 C 110.658 122.307, 112.845 117.326, 112.927 109.872 C 112.979 105.176, 113.452 102.870, 114.550 101.959 C 115.597 101.090, 116.002 99.349, 115.800 96.586 L 115.500 92.500 110 92.500 L 104.500 92.500 104 103 L 103.500 113.500 97.699 113.801 C 93.771 114.006, 91.718 114.571, 91.342 115.551 C 90.537 117.649, 68.790 117.657, 67.050 115.560 C 66.393 114.768, 64.875 113.981, 63.677 113.810 C 61.636 113.519, 61.469 112.842, 61 103 L 60.500 92.500 54.750 92.200 C 50.570 91.982, 48.982 92.255, 48.934 93.200 C 48.481 102.115, 49.340 112.718, 50.631 114.144 C 53.089 116.861, 50.277 117.472, 47.488 114.827 L 45.035 112.500 45.017 88.785 C 45.001 66.372, 44.894 65.014, 43.066 64.035 C 40.719 62.779, 29.371 62.777, 26.250 64.031 M 64.432 65.316 C 64.129 66.107, 64.020 68.947, 64.190 71.627 L 64.500 76.500 68.500 76.500 L 72.500 76.500 72.500 70.500 L 72.500 64.500 68.742 64.189 C 66.174 63.977, 64.809 64.334, 64.432 65.316 M 90.589 67.077 C 89.165 68.769, 88 70.522, 88 70.973 C 88 71.756, 94.637 78, 95.470 78 C 95.690 78, 97.024 77.561, 98.435 77.025 C 100.568 76.214, 100.997 75.414, 100.983 72.275 C 100.971 69.616, 100.264 67.835, 98.592 66.250 C 95.410 63.234, 93.671 63.414, 90.589 67.077 M 30.709 101.624 C 29.626 102.708, 29.865 109.799, 31.009 110.506 C 31.564 110.848, 32.938 110.837, 34.062 110.480 C 35.763 109.941, 36.056 109.130, 35.803 105.666 C 35.562 102.357, 35.080 101.440, 33.459 101.208 C 32.336 101.047, 31.099 101.235, 30.709 101.624 M 17.362 121.500 C 17.045 122.325, 15.788 123, 14.567 123 C 13.347 123, 11.355 124.057, 10.141 125.350 C 8.155 127.464, 8.092 127.831, 9.510 129.008 C 10.835 130.108, 11.055 132.734, 10.890 145.506 C 10.782 153.860, 11.014 161.214, 11.406 161.848 C 11.892 162.634, 16.862 163, 27.059 163 C 39.673 163, 42 162.766, 42 161.500 C 42 160.315, 40.582 160, 35.240 160 C 29.343 160, 28.121 159.667, 25.672 157.397 C 24.031 155.875, 23.101 154.180, 23.433 153.315 C 23.745 152.502, 24 151.648, 24 151.418 C 24 151.188, 28.725 151, 34.500 151 C 43.055 151, 45 150.729, 45 149.535 C 45 148.362, 42.956 148.013, 34.750 147.785 L 24.500 147.500 24.194 143.286 L 23.888 139.071 34.183 138.786 C 43.057 138.539, 44.523 138.259, 44.812 136.750 C 45.114 135.172, 44.101 135, 34.516 135 L 23.885 135 24.193 130.750 L 24.500 126.500 33.250 126.211 C 40.126 125.984, 42 125.609, 42 124.461 C 42 123.589, 41.041 123, 39.622 123 C 38.315 123, 36.685 122.325, 36 121.500 C 35.315 120.675, 33.290 120, 31.500 120 C 29.710 120, 27.685 120.675, 27 121.500 C 26.315 122.325, 24.733 123, 23.485 123 C 22.236 123, 20.955 122.325, 20.638 121.500 C 20.322 120.675, 19.585 120, 19 120 C 18.415 120, 17.678 120.675, 17.362 121.500 M 52.333 121.667 C 52.700 122.033, 53.300 122.033, 53.667 121.667 C 54.033 121.300, 53.733 121, 53 121 C 52.267 121, 51.967 121.300, 52.333 121.667" stroke="none" fill="#bd793e" fill-rule="evenodd"/></svg>